<svg width="40" height="40" viewBox="0 0 40 40" fill="none" xmlns="http://www.w3.org/2000/svg">
<path d="M24.6296 10.7405H15.3704C12.8135 10.7405 10.7407 12.8133 10.7407 15.3702V24.6294C10.7407 27.1863 12.8135 29.2591 15.3704 29.2591H24.6296C27.1865 29.2591 29.2592 27.1863 29.2592 24.6294V15.3702C29.2592 12.8133 27.1865 10.7405 24.6296 10.7405Z" stroke="#18B9C4" stroke-width="2" stroke-linecap="round" stroke-linejoin="round"/>
<path d="M23.7038 19.4167C23.818 20.1873 23.6864 20.9743 23.3276 21.6657C22.9688 22.3572 22.4011 22.918 21.7053 23.2682C21.0094 23.6185 20.2209 23.7404 19.4517 23.6166C18.6826 23.4928 17.9721 23.1297 17.4212 22.5788C16.8704 22.028 16.5072 21.3175 16.3835 20.5483C16.2597 19.7792 16.3816 18.9906 16.7319 18.2948C17.0821 17.5989 17.6428 17.0312 18.3343 16.6724C19.0258 16.3136 19.8128 16.182 20.5834 16.2963C21.3694 16.4129 22.0972 16.7791 22.659 17.341C23.2209 17.9029 23.5872 18.6306 23.7038 19.4167Z" stroke="#18B9C4" stroke-width="2" stroke-linecap="round" stroke-linejoin="round"/>
<path d="M25.0927 14.9072H25.1038" stroke="#18B9C4" stroke-width="2" stroke-linecap="round" stroke-linejoin="round"/>
</svg>
