<svg width="40" height="40" viewBox="0 0 40 40" fill="none" xmlns="http://www.w3.org/2000/svg">
<path d="M23.7037 16.2961C25.1772 16.2961 26.5903 16.8815 27.6321 17.9233C28.674 18.9652 29.2593 20.3783 29.2593 21.8517V28.3332H25.5556V21.8517C25.5556 21.3606 25.3605 20.8895 25.0132 20.5422C24.6659 20.195 24.1949 19.9998 23.7037 19.9998C23.2126 19.9998 22.7416 20.195 22.3943 20.5422C22.047 20.8895 21.8519 21.3606 21.8519 21.8517V28.3332H18.1482V21.8517C18.1482 20.3783 18.7335 18.9652 19.7754 17.9233C20.8172 16.8815 22.2303 16.2961 23.7037 16.2961Z" stroke="#18B9C4" stroke-width="2" stroke-linecap="round" stroke-linejoin="round"/>
<path d="M14.4444 17.2222H10.7407V28.3333H14.4444V17.2222Z" stroke="#18B9C4" stroke-width="2" stroke-linecap="round" stroke-linejoin="round"/>
<path d="M12.5925 14.4442C13.6153 14.4442 14.4444 13.6151 14.4444 12.5924C14.4444 11.5696 13.6153 10.7405 12.5925 10.7405C11.5698 10.7405 10.7407 11.5696 10.7407 12.5924C10.7407 13.6151 11.5698 14.4442 12.5925 14.4442Z" stroke="#18B9C4" stroke-width="2" stroke-linecap="round" stroke-linejoin="round"/>
</svg>
