<svg width="40" height="40" viewBox="0 0 40 40" fill="none" xmlns="http://www.w3.org/2000/svg">
<path d="M30.1852 11.676C29.2985 12.3014 28.3168 12.7798 27.2778 13.0927C26.7202 12.4515 25.979 11.997 25.1547 11.7907C24.3303 11.5845 23.4625 11.6364 22.6686 11.9394C21.8747 12.2424 21.193 12.7819 20.7158 13.485C20.2385 14.1881 19.9886 15.0208 20 15.8704V16.7964C18.3728 16.8386 16.7605 16.4777 15.3065 15.7459C13.8526 15.014 12.6022 13.934 11.6667 12.6019C11.6667 12.6019 7.963 20.9353 16.2963 24.639C14.3894 25.9334 12.1178 26.5824 9.81485 26.4908C18.1482 31.1204 28.3334 26.4908 28.3334 15.8427C28.3325 15.5848 28.3077 15.3275 28.2593 15.0741C29.2043 14.1422 29.8712 12.9655 30.1852 11.676Z" stroke="#18B9C4" stroke-width="2" stroke-linecap="round" stroke-linejoin="round"/>
</svg>
