<svg width="40" height="40" viewBox="0 0 40 40" fill="none" xmlns="http://www.w3.org/2000/svg">
<path d="M10.5249 28.8889C11.6827 28.8889 12.6299 29.8889 12.6299 31.1111C12.6299 33.5556 10.7354 35.5556 8.41994 35.5556C8.0621 35.5556 7.7253 35.5111 7.36745 35.4444C8.02 34.2222 8.41994 32.7556 8.41994 31.1111C8.41994 29.8889 9.36719 28.8889 10.5249 28.8889ZM35.0901 0C34.5428 0 34.0166 0.222222 33.5956 0.644444L14.7349 20.5556L20.5236 26.6667L39.3843 6.75556C40.2052 5.88889 40.2052 4.48889 39.3843 3.62222L36.5636 0.644444C36.1426 0.2 35.6164 0 35.0901 0ZM10.5249 24.4444C7.03065 24.4444 4.20997 27.4222 4.20997 31.1111C4.20997 34.0222 1.76819 35.5556 0 35.5556C1.93659 38.2667 5.24142 40 8.41994 40C13.072 40 16.8399 36.0222 16.8399 31.1111C16.8399 27.4222 14.0192 24.4444 10.5249 24.4444Z" fill="#18B9C4"/>
</svg>
